<svg xmlns="http://www.w3.org/2000/svg" xmlns:xlink="http://www.w3.org/1999/xlink" viewBox="0 0 770.66 791.05"><defs><style>.cls-1{fill:url(#linear-gradient);}.cls-2{fill:url(#linear-gradient-2);}.cls-3,.cls-4{fill:#fff;}.cls-4{stroke:#fff;stroke-miterlimit:10;}</style><linearGradient id="linear-gradient" x1="6938.07" y1="4741.5" x2="7236.96" y2="4385.81" gradientTransform="translate(5060.76 -6690.67) rotate(90)" gradientUnits="userSpaceOnUse"><stop offset="0" stop-color="#f3903f"/><stop offset="0.47" stop-color="#ed683c"/><stop offset="1" stop-color="#cd4232"/></linearGradient><linearGradient id="linear-gradient-2" x1="6943.38" y1="4959.11" x2="7207.47" y2="4644.83" gradientTransform="translate(5060.76 -6690.67) rotate(90)" gradientUnits="userSpaceOnUse"><stop offset="0" stop-color="#999b9e"/><stop offset="1" stop-color="#4d4d4f"/></linearGradient></defs><g id="Layer_2" data-name="Layer 2"><g id="Logo_white"><path class="cls-1" d="M508.83,688.25a23.56,23.56,0,0,1-32.19-19.37L420.69,138.15a24.09,24.09,0,0,1,28-26.26c141.95,24.28,249.95,148,249.84,296.85C698.47,535.59,619.91,644.05,508.83,688.25Z"/><path class="cls-2" d="M284,667.43a24,24,0,0,1-32.83,19.73C140.59,642.87,62.53,534.68,62.61,408.29c.12-148.59,108.2-271.88,250-295.68a24,24,0,0,1,27.87,26.23Z"/><path class="cls-3" d="M234,585.52c-28.94,9.8-58.4,18.27-88.44,24.29-3.75.76-7.51,1.51-11.28,2.16s-7.56,1.3-11.34,1.89-7.59,1.08-11.39,1.62-7.61.95-11.44,1.27c-7.64.79-15.32,1.18-23,1.34a190.11,190.11,0,0,1-23.12-.85,115.12,115.12,0,0,1-22.84-4.5A54.35,54.35,0,0,1,10.44,601.4a36.5,36.5,0,0,1-7.17-9.71A33.88,33.88,0,0,1,.16,580.07c-.72-8,1.1-15.88,3.8-23.14a113,113,0,0,1,10.5-20.66A195.45,195.45,0,0,1,28,517.62c4.85-5.94,10-11.65,15.24-17.19,2.65-2.76,5.32-5.49,8-8.17l4.13-4,4.18-3.92c-10.59,11-20.91,22.29-30,34.47a198.67,198.67,0,0,0-12.83,18.81A112.87,112.87,0,0,0,6.9,558c-2.45,7-4,14.5-3.26,21.76a30.34,30.34,0,0,0,2.91,10.35A32.68,32.68,0,0,0,13,598.64,51.12,51.12,0,0,0,32.29,609a112,112,0,0,0,22.06,4.25,187.88,187.88,0,0,0,22.65.91Q88.37,614,99.73,613c15.15-1.23,30.21-3.58,45.21-6.23s29.9-6,44.72-9.56l11.12-2.74,11.08-2.87Q222.91,588.61,234,585.52Z"/><path class="cls-3" d="M629.29,199c5-1.3,10-2.55,15-3.7s10-2.16,15.11-3.1,10.14-1.78,15.25-2.49c2.56-.36,5.12-.69,7.69-1s5.14-.53,7.73-.63a179.6,179.6,0,0,1,31.08,1.11,99.09,99.09,0,0,1,15.34,3.28A63.65,63.65,0,0,1,751,198.87c9.12,5.44,16.69,14.38,18.9,25.2a43.69,43.69,0,0,1,.06,16,72.7,72.7,0,0,1-4.44,15.15,141.31,141.31,0,0,1-15.24,27.18A267.19,267.19,0,0,1,731,306.69a486.27,486.27,0,0,1-44.17,43.16c-15.53,13.5-31.67,26.28-48.18,38.52s-33.39,24-50.63,35.18q-13.14,8.07-26.47,15.81-6.66,3.86-13.36,7.65t-13.48,7.44q6.48-4.15,12.91-8.37l12.86-8.45q12.81-8.5,25.41-17.33c17.06-11.33,33.94-22.93,50.37-35.14s32.51-24.91,47.94-38.33A479.81,479.81,0,0,0,728,304a265.33,265.33,0,0,0,19-23.88,137.15,137.15,0,0,0,14.81-26.39A69.46,69.46,0,0,0,766,239.44a39.59,39.59,0,0,0,0-14.56,29.05,29.05,0,0,0-2.29-6.81,35.48,35.48,0,0,0-3.82-6.18,39.57,39.57,0,0,0-11-9.6,59.2,59.2,0,0,0-13.61-5.92,93.76,93.76,0,0,0-14.72-3.14,161.8,161.8,0,0,0-30.35-1c-5.07.27-10.17.39-15.26.79s-10.18.85-15.26,1.45-10.16,1.3-15.22,2.08S634.34,198.14,629.29,199Z"/><path class="cls-4" d="M560.34,446.71c-12.14,7.82-24,11.06-26.41,7.25s5.39-13.23,17.53-21,50.08-26.1,52.53-22.29S572.47,438.9,560.34,446.71Z"/><path class="cls-3" d="M370.67,8.44,289.52,780.61A9.42,9.42,0,0,0,305.78,788l67.33-72.27a9.41,9.41,0,0,1,13.82,0l66.23,72a9.42,9.42,0,0,0,16.3-7.35l-80-771.94C388.25-2.81,371.86-2.82,370.67,8.44Z"/></g></g></svg>